<?xml version="1.0" encoding="UTF-8" standalone="no"?>
<!DOCTYPE svg PUBLIC "-//W3C//DTD SVG 1.1//EN" "http://www.w3.org/Graphics/SVG/1.1/DTD/svg11.dtd">
<!-- Created with Vectornator (http://vectornator.io/) -->
<svg height="512.0pt" stroke-miterlimit="10" style="fill-rule:nonzero;clip-rule:evenodd;stroke-linecap:round;stroke-linejoin:round;" version="1.1" viewBox="0 0 512 512" width="512.0pt" xml:space="preserve" xmlns="http://www.w3.org/2000/svg" xmlns:xlink="http://www.w3.org/1999/xlink">
<defs/>
<g id="Слой-1">
<g/>
<g opacity="1">
<path d="M223.284 167.836L255.33 153.594L358.123 199.279L255.33 244.965L152.537 199.279L191.77 181.842" fill="none" opacity="1" stroke="#000000" stroke-linecap="butt" stroke-linejoin="round" stroke-width="22.8429"/>
<path d="M255.33 249.798L255.33 364.013L358.123 318.327L358.123 204.113L255.33 249.798ZM255.33 249.798L152.537 204.113L152.537 318.327L255.33 364.013L255.33 249.798Z" fill="none" opacity="1" stroke="#000000" stroke-linecap="butt" stroke-linejoin="round" stroke-width="22.8429"/>
</g>
<path d="M93.9735 97.4469L416.686 97.4469L416.686 420.16L93.9735 420.16L93.9735 97.4469Z" fill="none" opacity="1" stroke="#000000" stroke-linecap="butt" stroke-linejoin="round" stroke-width="27.4565"/>
<path d="M193.524 168.863L213.697 159.906L222.75 180.295L202.578 189.252L193.524 168.863Z" fill="#000000" fill-rule="nonzero" opacity="1" stroke="none"/>
<path d="M240.668 44.9807C240.668 36.883 247.232 30.3185 255.33 30.3185C263.428 30.3185 269.992 36.883 269.992 44.9807C269.992 53.0784 263.428 59.6429 255.33 59.6429C247.232 59.6429 240.668 53.0784 240.668 44.9807Z" fill="none" opacity="1" stroke="#000000" stroke-linecap="butt" stroke-linejoin="round" stroke-width="17.3437"/>
<path d="M459.597 259.314C459.597 251.216 466.161 244.652 474.259 244.652C482.357 244.652 488.921 251.216 488.921 259.314C488.921 267.412 482.357 273.976 474.259 273.976C466.161 273.976 459.597 267.412 459.597 259.314Z" fill="none" opacity="1" stroke="#000000" stroke-linecap="butt" stroke-linejoin="round" stroke-width="17.3437"/>
<path d="M23.0788 259.57C23.0788 251.472 29.6433 244.907 37.741 244.907C45.8387 244.907 52.4032 251.472 52.4032 259.57C52.4032 267.667 45.8387 274.232 37.741 274.232C29.6433 274.232 23.0788 267.667 23.0788 259.57Z" fill="none" opacity="1" stroke="#000000" stroke-linecap="butt" stroke-linejoin="round" stroke-width="17.3437"/>
<path d="M381.338 50.5872C381.338 42.4894 387.903 35.9249 396.001 35.9249C404.098 35.9249 410.663 42.4894 410.663 50.5872C410.663 58.6849 404.098 65.2494 396.001 65.2494C387.903 65.2494 381.338 58.6849 381.338 50.5872Z" fill="none" opacity="1" stroke="#000000" stroke-linecap="butt" stroke-linejoin="round" stroke-width="17.3437"/>
<path d="M446.273 127.719C446.273 119.622 452.837 113.057 460.935 113.057C469.032 113.057 475.597 119.622 475.597 127.719C475.597 135.817 469.032 142.382 460.935 142.382C452.837 142.382 446.273 135.817 446.273 127.719Z" fill="none" opacity="1" stroke="#000000" stroke-linecap="butt" stroke-linejoin="round" stroke-width="17.3437"/>
<path d="M446.273 374.451C446.273 366.353 452.837 359.788 460.935 359.788C469.032 359.788 475.597 366.353 475.597 374.451C475.597 382.548 469.032 389.113 460.935 389.113C452.837 389.113 446.273 382.548 446.273 374.451Z" fill="none" opacity="1" stroke="#000000" stroke-linecap="butt" stroke-linejoin="round" stroke-width="17.3437"/>
<path d="M108.152 50.5872C108.152 42.4894 114.716 35.9249 122.814 35.9249C130.912 35.9249 137.476 42.4894 137.476 50.5872C137.476 58.6849 130.912 65.2494 122.814 65.2494C114.716 65.2494 108.152 58.6849 108.152 50.5872Z" fill="none" opacity="1" stroke="#000000" stroke-linecap="butt" stroke-linejoin="round" stroke-width="17.3437"/>
<path d="M35.0012 127.719C35.0012 119.622 41.5657 113.057 49.6634 113.057C57.7611 113.057 64.3256 119.622 64.3256 127.719C64.3256 135.817 57.7611 142.382 49.6634 142.382C41.5657 142.382 35.0012 135.817 35.0012 127.719Z" fill="none" opacity="1" stroke="#000000" stroke-linecap="butt" stroke-linejoin="round" stroke-width="17.3437"/>
<path d="M255.33 59.6429L255.33 88.8431" fill="none" opacity="1" stroke="#000000" stroke-linecap="butt" stroke-linejoin="round" stroke-width="17.3437"/>
<g opacity="1">
<path d="M240.668 467.019C240.668 475.117 247.232 481.682 255.33 481.682C263.428 481.682 269.992 475.117 269.992 467.019C269.992 458.922 263.428 452.357 255.33 452.357C247.232 452.357 240.668 458.922 240.668 467.019Z" fill="none" opacity="1" stroke="#000000" stroke-linecap="butt" stroke-linejoin="round" stroke-width="17.3437"/>
<path d="M255.33 452.357L255.33 423.157" fill="none" opacity="1" stroke="#000000" stroke-linecap="butt" stroke-linejoin="round" stroke-width="17.3437"/>
</g>
<path d="M459.597 259.57L430.397 259.442" fill="none" opacity="1" stroke="#000000" stroke-linecap="butt" stroke-linejoin="round" stroke-width="17.3437"/>
<path d="M81.6031 259.442L52.4032 259.314" fill="none" opacity="1" stroke="#000000" stroke-linecap="butt" stroke-linejoin="round" stroke-width="17.3437"/>
<path d="M351.752 97.4469L389.598 59.6429" fill="none" opacity="1" stroke="#000000" stroke-linecap="butt" stroke-linejoin="round" stroke-width="17.3437"/>
<g opacity="1">
<path d="M381.469 467.019C381.469 475.117 388.034 481.682 396.132 481.682C404.229 481.682 410.794 475.117 410.794 467.019C410.794 458.922 404.229 452.357 396.132 452.357C388.034 452.357 381.469 458.922 381.469 467.019Z" fill="none" opacity="1" stroke="#000000" stroke-linecap="butt" stroke-linejoin="round" stroke-width="17.3437"/>
<path d="M351.883 420.16L389.729 457.963" fill="none" opacity="1" stroke="#000000" stroke-linecap="butt" stroke-linejoin="round" stroke-width="17.3437"/>
</g>
<path d="M416.686 174.579L454.532 136.775" fill="none" opacity="1" stroke="#000000" stroke-linecap="butt" stroke-linejoin="round" stroke-width="17.3437"/>
<path d="M416.686 326.224L454.532 364.028" fill="none" opacity="1" stroke="#000000" stroke-linecap="butt" stroke-linejoin="round" stroke-width="17.3437"/>
<path d="M167.124 97.4469L129.278 59.6429" fill="none" opacity="1" stroke="#000000" stroke-linecap="butt" stroke-linejoin="round" stroke-width="17.3437"/>
<g opacity="1">
<path d="M108.152 467.019C108.152 475.117 114.716 481.682 122.814 481.682C130.912 481.682 137.476 475.117 137.476 467.019C137.476 458.922 130.912 452.357 122.814 452.357C114.716 452.357 108.152 458.922 108.152 467.019Z" fill="none" opacity="1" stroke="#000000" stroke-linecap="butt" stroke-linejoin="round" stroke-width="17.3437"/>
<path d="M167.124 420.16L129.278 457.963" fill="none" opacity="1" stroke="#000000" stroke-linecap="butt" stroke-linejoin="round" stroke-width="17.3437"/>
</g>
<path d="M93.9735 174.579L56.1276 136.775" fill="none" opacity="1" stroke="#000000" stroke-linecap="butt" stroke-linejoin="round" stroke-width="17.3437"/>
<g opacity="1">
<path d="M34.8395 374.451C34.8395 366.353 41.404 359.788 49.5017 359.788C57.5994 359.788 64.1639 366.353 64.1639 374.451C64.1639 382.548 57.5994 389.113 49.5017 389.113C41.404 389.113 34.8395 382.548 34.8395 374.451Z" fill="none" opacity="1" stroke="#000000" stroke-linecap="butt" stroke-linejoin="round" stroke-width="17.3437"/>
<path d="M93.8118 336.647L55.9659 374.451" fill="none" opacity="1" stroke="#000000" stroke-linecap="butt" stroke-linejoin="round" stroke-width="17.3437"/>
</g>
</g>
</svg>
